# xmcd CD database file
#
# Track frame offsets:
#	150
#	27199
#	60492
#	82642
#	110571
#	133283
#	155055
#	178904
#
# Disc length: 2824 seconds
#
# Revision: 1
# Processed by: cddbd v1.5.2PL0 Copyright (c) Steve Scherf et al.
# Submitted via: CDex 1.51
#
DISCID=650b0608
DTITLE=Barrelhouse Jazzband - Creole Spirit
DYEAR=2012
DGENRE=Jazz
TTITLE0=Barrelhouse Jazzband - Red Beans And Rice
TTITLE1=Barrelhouse Jazzband - Creole Swing
TTITLE2=Barrelhouse Jazzband - Chant In The Night
TTITLE3=Barrelhouse Jazzband - Moune A Ou Ce Moune A Ou
TTITLE4=Barrelhouse Jazzband - Midnight Mama
TTITLE5=Barrelhouse Jazzband - Shreveport Stomp
TTITLE6=Barrelhouse Jazzband - Mauritius
TTITLE7=Barrelhouse Jazzband - Take Us To The Mardi Gras
EXTD=YEAR: 2012
EXTT0=
EXTT1=
EXTT2=
EXTT3=
EXTT4=
EXTT5=
EXTT6=
EXTT7=
PLAYORDER=
